<svg xmlns="http://www.w3.org/2000/svg" width="128" height="128" viewBox="0 0 128 128" fill="none">
  <defs>
    <linearGradient id="g" x1="20" y1="20" x2="108" y2="108" gradientUnits="userSpaceOnUse">
      <stop stop-color="#6366F1"/>
      <stop offset="1" stop-color="#10B981"/>
    </linearGradient>
  </defs>
  <rect x="10" y="10" width="108" height="108" rx="28" fill="url(#g)" opacity="0.95"/>
  <rect x="20" y="20" width="88" height="88" rx="22" fill="rgba(255,255,255,0.12)"/>
  <path d="M44 48C44 43.5817 47.5817 40 52 40H76C80.4183 40 84 43.5817 84 48V54C84 58.4183 80.4183 62 76 62H52C47.5817 62 44 58.4183 44 54V48Z" fill="white" opacity="0.92"/>
  <path d="M44 74C44 69.5817 47.5817 66 52 66H76C80.4183 66 84 69.5817 84 74V80C84 84.4183 80.4183 88 76 88H52C47.5817 88 44 84.4183 44 80V74Z" fill="white" opacity="0.92"/>
  <path d="M52 52H76" stroke="#0B1220" stroke-width="6" stroke-linecap="round" opacity="0.85"/>
  <path d="M52 78H68" stroke="#0B1220" stroke-width="6" stroke-linecap="round" opacity="0.85"/>
</svg>

